<mxfile host="Electron" agent="Mozilla/5.0 (Windows NT 10.0; Win64; x64) AppleWebKit/537.36 (KHTML, like Gecko) draw.io/27.0.5 Chrome/134.0.6998.205 Electron/35.3.0 Safari/537.36" version="27.0.5">
  <diagram name="Page-1" id="Ge1yIwsMSvi_HEwqILoV">
    <mxGraphModel dx="1892" dy="626" grid="1" gridSize="10" guides="1" tooltips="1" connect="1" arrows="1" fold="1" page="1" pageScale="1" pageWidth="850" pageHeight="1100" math="0" shadow="0">
      <root>
        <mxCell id="0" />
        <mxCell id="1" parent="0" />
        <mxCell id="ZMK2RhF4my21MzGrhLF9-2" value="" style="rounded=0;whiteSpace=wrap;html=1;fillColor=none;dashed=1;" vertex="1" parent="1">
          <mxGeometry x="205" y="160" width="515" height="640" as="geometry" />
        </mxCell>
        <mxCell id="ZMK2RhF4my21MzGrhLF9-4" value="" style="rounded=0;whiteSpace=wrap;html=1;fillColor=none;dashed=1;" vertex="1" parent="1">
          <mxGeometry x="790" y="160" width="140" height="370" as="geometry" />
        </mxCell>
        <mxCell id="ZMK2RhF4my21MzGrhLF9-6" value="" style="rounded=0;whiteSpace=wrap;html=1;fillColor=none;dashed=1;" vertex="1" parent="1">
          <mxGeometry x="-90" y="160" width="170" height="370" as="geometry" />
        </mxCell>
        <mxCell id="ZMK2RhF4my21MzGrhLF9-7" value="&lt;font&gt;Source&lt;/font&gt;" style="rounded=0;whiteSpace=wrap;html=1;strokeColor=none;fontSize=16;" vertex="1" parent="1">
          <mxGeometry x="-46.08" y="140" width="70" height="40" as="geometry" />
        </mxCell>
        <mxCell id="ZMK2RhF4my21MzGrhLF9-8" value="&lt;font&gt;Data Warehouse&lt;/font&gt;" style="rounded=0;whiteSpace=wrap;html=1;strokeColor=none;fontSize=16;" vertex="1" parent="1">
          <mxGeometry x="260" y="140" width="330" height="40" as="geometry" />
        </mxCell>
        <mxCell id="ZMK2RhF4my21MzGrhLF9-9" value="&lt;font&gt;Consume&lt;/font&gt;" style="rounded=0;whiteSpace=wrap;html=1;strokeColor=none;fontSize=16;" vertex="1" parent="1">
          <mxGeometry x="825" y="140" width="70" height="40" as="geometry" />
        </mxCell>
        <mxCell id="ZMK2RhF4my21MzGrhLF9-10" value="&lt;font style=&quot;font-size: 18px;&quot;&gt;Bronze&lt;/font&gt;" style="rounded=0;whiteSpace=wrap;html=1;fillColor=#fad7ac;strokeColor=light-dark(#b46504, #0080f0);fillStyle=solid;strokeWidth=1;perimeterSpacing=1;fontColor=#000000;" vertex="1" parent="1">
          <mxGeometry x="240" y="200" width="100" height="40" as="geometry" />
        </mxCell>
        <mxCell id="ZMK2RhF4my21MzGrhLF9-11" value="&lt;font style=&quot;font-size: 18px;&quot;&gt;Silver&lt;/font&gt;" style="rounded=0;whiteSpace=wrap;html=1;fillColor=light-dark(#FAD7AC,#E6E6E6);strokeColor=none;fillStyle=solid;strokeWidth=1;perimeterSpacing=1;fontColor=#000000;" vertex="1" parent="1">
          <mxGeometry x="420" y="200" width="100" height="40" as="geometry" />
        </mxCell>
        <mxCell id="ZMK2RhF4my21MzGrhLF9-12" value="&lt;font style=&quot;font-size: 18px; color: rgb(0, 0, 0);&quot;&gt;Gold&lt;/font&gt;" style="rounded=0;whiteSpace=wrap;html=1;fillStyle=solid;strokeWidth=1;perimeterSpacing=1;fillColor=light-dark(#000000,#FFFF00);strokeColor=light-dark(default, #c8b809);" vertex="1" parent="1">
          <mxGeometry x="580" y="200" width="100" height="40" as="geometry" />
        </mxCell>
        <mxCell id="ZMK2RhF4my21MzGrhLF9-13" value="" style="rounded=0;whiteSpace=wrap;html=1;" vertex="1" parent="1">
          <mxGeometry x="220" y="260" width="130" height="510" as="geometry" />
        </mxCell>
        <mxCell id="ZMK2RhF4my21MzGrhLF9-14" value="" style="rounded=0;whiteSpace=wrap;html=1;" vertex="1" parent="1">
          <mxGeometry x="370" y="260" width="170" height="510" as="geometry" />
        </mxCell>
        <mxCell id="ZMK2RhF4my21MzGrhLF9-15" value="" style="rounded=0;whiteSpace=wrap;html=1;" vertex="1" parent="1">
          <mxGeometry x="560" y="260" width="140" height="510" as="geometry" />
        </mxCell>
        <mxCell id="ZMK2RhF4my21MzGrhLF9-16" value="" style="sketch=0;pointerEvents=1;shadow=0;dashed=0;html=1;strokeColor=none;labelPosition=center;verticalLabelPosition=bottom;verticalAlign=top;outlineConnect=0;align=center;shape=mxgraph.office.concepts.folder;fillColor=#2072B8;" vertex="1" parent="1">
          <mxGeometry x="-36.08" y="180" width="50" height="45" as="geometry" />
        </mxCell>
        <mxCell id="ZMK2RhF4my21MzGrhLF9-17" value="" style="image;aspect=fixed;html=1;points=[];align=center;fontSize=12;image=img/lib/azure2/general/File.svg;" vertex="1" parent="1">
          <mxGeometry x="1.740000000000009" y="205" width="24.35" height="30" as="geometry" />
        </mxCell>
        <mxCell id="ZMK2RhF4my21MzGrhLF9-18" value="CRM" style="rounded=0;whiteSpace=wrap;html=1;fontSize=16;fillColor=none;strokeColor=none;" vertex="1" parent="1">
          <mxGeometry x="-36.07999999999997" y="235" width="60" height="40" as="geometry" />
        </mxCell>
        <mxCell id="ZMK2RhF4my21MzGrhLF9-19" value="" style="sketch=0;pointerEvents=1;shadow=0;dashed=0;html=1;strokeColor=none;labelPosition=center;verticalLabelPosition=bottom;verticalAlign=top;outlineConnect=0;align=center;shape=mxgraph.office.concepts.folder;fillColor=#2072B8;" vertex="1" parent="1">
          <mxGeometry x="-36.08" y="290" width="50" height="45" as="geometry" />
        </mxCell>
        <mxCell id="ZMK2RhF4my21MzGrhLF9-20" value="" style="image;aspect=fixed;html=1;points=[];align=center;fontSize=12;image=img/lib/azure2/general/File.svg;" vertex="1" parent="1">
          <mxGeometry x="1.7400000000000233" y="315" width="24.35" height="30" as="geometry" />
        </mxCell>
        <mxCell id="ZMK2RhF4my21MzGrhLF9-21" value="ERP" style="rounded=0;whiteSpace=wrap;html=1;fontSize=16;fillColor=none;strokeColor=none;" vertex="1" parent="1">
          <mxGeometry x="-36.07999999999997" y="345" width="60" height="40" as="geometry" />
        </mxCell>
        <mxCell id="ZMK2RhF4my21MzGrhLF9-23" value="&lt;b&gt;Object Type: &lt;/b&gt;CSV Files&lt;div&gt;&lt;b&gt;Interface: &lt;/b&gt;Files in Folder&lt;br&gt;&lt;div&gt;&amp;nbsp;&lt;/div&gt;&lt;/div&gt;" style="rounded=0;whiteSpace=wrap;html=1;fillColor=none;strokeColor=none;" vertex="1" parent="1">
          <mxGeometry x="-77.5" y="400" width="145" height="50" as="geometry" />
        </mxCell>
        <mxCell id="ZMK2RhF4my21MzGrhLF9-25" value="" style="html=1;verticalLabelPosition=bottom;align=center;labelBackgroundColor=#ffffff;verticalAlign=top;strokeWidth=2;strokeColor=#0080F0;shadow=0;dashed=0;shape=mxgraph.ios7.icons.data;fillColor=#FFE599;" vertex="1" parent="1">
          <mxGeometry x="265" y="290" width="40" height="62.05" as="geometry" />
        </mxCell>
        <mxCell id="ZMK2RhF4my21MzGrhLF9-26" value="" style="html=1;verticalLabelPosition=bottom;align=center;labelBackgroundColor=#ffffff;verticalAlign=top;strokeWidth=2;strokeColor=#0080F0;shadow=0;dashed=0;shape=mxgraph.ios7.icons.data;fillColor=#E6E6E6;" vertex="1" parent="1">
          <mxGeometry x="435" y="290" width="40" height="62.05" as="geometry" />
        </mxCell>
        <mxCell id="ZMK2RhF4my21MzGrhLF9-27" value="" style="html=1;verticalLabelPosition=bottom;align=center;labelBackgroundColor=#ffffff;verticalAlign=top;strokeWidth=2;strokeColor=#0080F0;shadow=0;dashed=0;shape=mxgraph.ios7.icons.data;fillColor=#FFFF33;" vertex="1" parent="1">
          <mxGeometry x="610" y="290" width="40" height="62.05" as="geometry" />
        </mxCell>
        <mxCell id="ZMK2RhF4my21MzGrhLF9-28" value="v" style="shape=singleArrow;whiteSpace=wrap;html=1;fillColor=#dae8fc;strokeColor=#6c8ebf;gradientColor=#7ea6e0;" vertex="1" parent="1">
          <mxGeometry x="340" y="385" width="40" height="60" as="geometry" />
        </mxCell>
        <mxCell id="ZMK2RhF4my21MzGrhLF9-29" value="v" style="shape=singleArrow;whiteSpace=wrap;html=1;fillColor=#dae8fc;strokeColor=#6c8ebf;gradientColor=#7ea6e0;" vertex="1" parent="1">
          <mxGeometry x="530" y="385" width="40" height="60" as="geometry" />
        </mxCell>
        <mxCell id="ZMK2RhF4my21MzGrhLF9-30" value="v" style="shape=singleArrow;whiteSpace=wrap;html=1;fillColor=#dae8fc;strokeColor=#6c8ebf;gradientColor=#7ea6e0;" vertex="1" parent="1">
          <mxGeometry x="80" y="325" width="120" height="60" as="geometry" />
        </mxCell>
        <mxCell id="ZMK2RhF4my21MzGrhLF9-31" value="v" style="shape=singleArrow;whiteSpace=wrap;html=1;fillColor=#dae8fc;strokeColor=#6c8ebf;gradientColor=#7ea6e0;" vertex="1" parent="1">
          <mxGeometry x="720" y="325" width="70" height="60" as="geometry" />
        </mxCell>
        <mxCell id="ZMK2RhF4my21MzGrhLF9-32" value="&lt;b&gt;Object Type&lt;/b&gt;: Tables&lt;div&gt;&lt;br&gt;&lt;/div&gt;&lt;div&gt;&lt;b&gt;Load&lt;/b&gt;:&amp;nbsp;&lt;/div&gt;&lt;div&gt;Batch Processing&lt;/div&gt;&lt;div&gt;Full Load&lt;/div&gt;&lt;div&gt;Truncate and Insert&lt;/div&gt;&lt;div&gt;&lt;br&gt;&lt;/div&gt;&lt;div&gt;No &lt;b&gt;Transformations&lt;/b&gt;&lt;/div&gt;&lt;div&gt;&lt;br&gt;&lt;/div&gt;&lt;div&gt;&lt;b&gt;Data Model&lt;/b&gt;: None (As-is)&lt;/div&gt;" style="rounded=0;whiteSpace=wrap;html=1;fillColor=none;strokeColor=none;" vertex="1" parent="1">
          <mxGeometry x="245" y="510" width="80" height="280" as="geometry" />
        </mxCell>
        <mxCell id="ZMK2RhF4my21MzGrhLF9-33" value="&lt;b&gt;Object Type&lt;/b&gt;: Tables&lt;div&gt;&lt;br&gt;&lt;/div&gt;&lt;div&gt;&lt;b&gt;Load&lt;/b&gt;:&amp;nbsp;&lt;/div&gt;&lt;div&gt;&lt;ul&gt;&lt;li style=&quot;&quot;&gt;Batch Processing&lt;/li&gt;&lt;li style=&quot;&quot;&gt;Full Load&lt;/li&gt;&lt;li style=&quot;&quot;&gt;Truncate and Insert&lt;/li&gt;&lt;/ul&gt;&lt;/div&gt;&lt;div&gt;&lt;br&gt;&lt;/div&gt;&lt;div&gt;&lt;b&gt;Transformations&lt;/b&gt;:&amp;nbsp;&lt;br&gt;&lt;ul&gt;&lt;li style=&quot;&quot;&gt;Data Cleansing&lt;/li&gt;&lt;li style=&quot;&quot;&gt;Data Normalization&lt;/li&gt;&lt;li style=&quot;&quot;&gt;Data Standardization&lt;/li&gt;&lt;li style=&quot;&quot;&gt;Data Enrichment&lt;/li&gt;&lt;li style=&quot;&quot;&gt;Derived Columns&lt;/li&gt;&lt;/ul&gt;&lt;/div&gt;&lt;div&gt;&lt;br&gt;&lt;/div&gt;&lt;div&gt;&lt;br&gt;&lt;/div&gt;&lt;div&gt;&lt;b&gt;Data Model&lt;/b&gt;: None (As-is)&lt;/div&gt;" style="rounded=0;whiteSpace=wrap;html=1;fillColor=none;strokeColor=none;align=left;" vertex="1" parent="1">
          <mxGeometry x="384.38" y="425" width="171.25" height="375" as="geometry" />
        </mxCell>
        <mxCell id="ZMK2RhF4my21MzGrhLF9-34" value="&lt;b&gt;Object Type&lt;/b&gt;: Views&lt;div&gt;&lt;br&gt;&lt;/div&gt;&lt;div&gt;No&lt;b&gt; Load&lt;/b&gt;&lt;/div&gt;&lt;div&gt;&lt;br&gt;&lt;/div&gt;&lt;div&gt;&lt;b&gt;Transformations&lt;/b&gt;:&amp;nbsp;&lt;br&gt;Data Integrations&lt;/div&gt;&lt;div&gt;Aggregations&lt;/div&gt;&lt;div&gt;Business Logic&lt;/div&gt;&lt;div&gt;&lt;br&gt;&lt;/div&gt;&lt;div&gt;&lt;br&gt;&lt;/div&gt;&lt;div&gt;&lt;b&gt;Data Model&lt;/b&gt;: Star Schema&lt;/div&gt;&lt;div&gt;Flat Table&lt;/div&gt;&lt;div&gt;Aggregated Table&lt;/div&gt;" style="rounded=0;whiteSpace=wrap;html=1;fillColor=none;strokeColor=none;" vertex="1" parent="1">
          <mxGeometry x="580" y="462.5" width="100" height="375" as="geometry" />
        </mxCell>
        <mxCell id="ZMK2RhF4my21MzGrhLF9-36" value="" style="image;aspect=fixed;html=1;points=[];align=center;fontSize=12;image=img/lib/azure2/analytics/Power_BI_Embedded.svg;" vertex="1" parent="1">
          <mxGeometry x="800" y="185.33" width="41" height="54.67" as="geometry" />
        </mxCell>
        <mxCell id="ZMK2RhF4my21MzGrhLF9-37" value="BI and Reporting" style="rounded=0;whiteSpace=wrap;html=1;strokeColor=none;fillColor=none;fontSize=14;" vertex="1" parent="1">
          <mxGeometry x="835" y="189.34" width="95" height="60" as="geometry" />
        </mxCell>
        <mxCell id="ZMK2RhF4my21MzGrhLF9-38" value="" style="image;aspect=fixed;html=1;points=[];align=center;fontSize=12;image=img/lib/azure2/general/Search.svg;" vertex="1" parent="1">
          <mxGeometry x="797.36" y="297.52" width="46.28" height="47" as="geometry" />
        </mxCell>
        <mxCell id="ZMK2RhF4my21MzGrhLF9-39" value="Ad-hoc SQL Queries" style="rounded=0;whiteSpace=wrap;html=1;strokeColor=none;fillColor=none;fontSize=14;" vertex="1" parent="1">
          <mxGeometry x="841" y="297.52" width="95" height="60" as="geometry" />
        </mxCell>
        <mxCell id="ZMK2RhF4my21MzGrhLF9-41" value="" style="points=[];aspect=fixed;html=1;align=center;shadow=0;dashed=0;fillColor=#FF6A00;strokeColor=none;shape=mxgraph.alibaba_cloud.gdb_graph_database;" vertex="1" parent="1">
          <mxGeometry x="797.36" y="405" width="46.33" height="40" as="geometry" />
        </mxCell>
        <mxCell id="ZMK2RhF4my21MzGrhLF9-42" value="Machine Learning" style="rounded=0;whiteSpace=wrap;html=1;strokeColor=none;fillColor=none;fontSize=14;" vertex="1" parent="1">
          <mxGeometry x="843.69" y="395" width="76.36" height="60" as="geometry" />
        </mxCell>
      </root>
    </mxGraphModel>
  </diagram>
</mxfile>
